<?xml version="1.0" encoding="UTF-8"?>
<svg id="Layer_2" data-name="Layer 2" xmlns="http://www.w3.org/2000/svg" viewBox="0 0 90.27 80.84">
  <defs>
    <style>
      .cls-1 {
        fill: #231f20;
        stroke-width: 0px;
      }
    </style>
  </defs>
  <g id="Layer_1-2" data-name="Layer 1">
    <g>
      <path class="cls-1" d="M2.19,41.2l-.9-.8c-1.97-1.76-1.65-4.93.7-7.06L35.58,2.82c2.35-2.14,5.85-2.44,7.82-.68l.9.8c1.97,1.76,1.65,4.93-.7,7.06L10.01,40.52c-2.35,2.14-5.85,2.44-7.82.68Z"/>
      <path class="cls-1" d="M52.85,79.27l-1.68-1.57c-1.77-1.66-1.77-4.35,0-6.02l19.6-18.34c1.77-1.66,4.65-1.66,6.43,0l1.68,1.57c1.77,1.66,1.77,4.35,0,6.02l-19.6,18.34c-1.77,1.66-4.65,1.66-6.43,0Z"/>
      <path class="cls-1" d="M88.92,53.23l-.05.06c-2.02,2.2-5.56,2.46-7.91.57l-21.3-17.09c-2.35-1.89-2.62-5.2-.61-7.4l.05-.06c2.02-2.2,5.56-2.46,7.91-.57l21.3,17.09c2.35,1.89,2.62,5.2.61,7.4Z"/>
      <path class="cls-1" d="M61.17,25.02l-1.58-1.48c-1.71-1.6-1.71-4.2,0-5.8L77.26,1.2c1.71-1.6,4.48-1.6,6.19,0l1.58,1.48c1.71,1.6,1.71,4.2,0,5.8l-17.67,16.54c-1.71,1.6-4.48,1.6-6.19,0Z"/>
      <path class="cls-1" d="M44.15,78.47l-1.05,1.1c-1.69,1.77-5.02,1.67-7.43-.21L2.52,53.52c-2.42-1.88-3-4.84-1.31-6.61l1.05-1.1c1.69-1.77,5.02-1.67,7.43.21l33.14,25.84c2.42,1.88,3,4.84,1.31,6.61Z"/>
    </g>
  </g>
</svg>